<svg width="780" height="660" viewBox="0 0 780 660" fill="none" xmlns="http://www.w3.org/2000/svg">
<path d="M702 330V123.75H780V371.25H702M702 536.25H780V453.75H702M312 371.25C416.13 371.25 624 426.525 624 536.25V660H0V536.25C0 426.525 207.87 371.25 312 371.25ZM312 0C353.374 0 393.053 17.3839 422.309 48.3274C451.564 79.2709 468 121.239 468 165C468 208.761 451.564 250.729 422.309 281.673C393.053 312.616 353.374 330 312 330C270.626 330 230.947 312.616 201.691 281.673C172.436 250.729 156 208.761 156 165C156 121.239 172.436 79.2709 201.691 48.3274C230.947 17.3839 270.626 0 312 0ZM312 449.625C196.17 449.625 74.1 509.85 74.1 536.25V581.625H549.9V536.25C549.9 509.85 427.83 449.625 312 449.625ZM312 78.375C290.279 78.375 269.447 87.5015 254.088 103.747C238.729 119.992 230.1 142.026 230.1 165C230.1 187.974 238.729 210.008 254.088 226.253C269.447 242.498 290.279 251.625 312 251.625C333.721 251.625 354.553 242.498 369.912 226.253C385.271 210.008 393.9 187.974 393.9 165C393.9 142.026 385.271 119.992 369.912 103.747C354.553 87.5015 333.721 78.375 312 78.375Z" fill="red" fill-opacity="1"/>
</svg>
