<svg width="780" height="660" viewBox="0 0 780 660" fill="none" xmlns="http://www.w3.org/2000/svg">
<path d="M724 340L780 396.4L518.8 660L380 520L436 463.6L518.8 546.8L724 340ZM320 0C362.435 0 403.131 16.8571 433.137 46.8629C463.143 76.8687 480 117.565 480 160C480 202.435 463.143 243.131 433.137 273.137C403.131 303.143 362.435 320 320 320C277.565 320 236.869 303.143 206.863 273.137C176.857 243.131 160 202.435 160 160C160 117.565 176.857 76.8687 206.863 46.8629C236.869 16.8571 277.565 0 320 0ZM320 80C298.783 80 278.434 88.4285 263.431 103.431C248.429 118.434 240 138.783 240 160C240 181.217 248.429 201.566 263.431 216.569C278.434 231.571 298.783 240 320 240C341.217 240 361.566 231.571 376.569 216.569C391.571 201.566 400 181.217 400 160C400 138.783 391.571 118.434 376.569 103.431C361.566 88.4285 341.217 80 320 80ZM320 360C347.2 360 380 363.6 416.4 370.4L349.6 437.2L320 436C201.2 436 76 494.4 76 520V564H324L400 640H0V520C0 413.6 213.2 360 320 360Z" fill="black" fill-opacity="0.1"/></svg>